<?xml version="1.0" encoding="UTF-8" standalone="no"?><!DOCTYPE svg PUBLIC "-//W3C//DTD SVG 1.1//EN" "http://www.w3.org/Graphics/SVG/1.1/DTD/svg11.dtd"><svg width="100%" height="100%" viewBox="0 0 260 260" version="1.1" xmlns="http://www.w3.org/2000/svg" xmlns:xlink="http://www.w3.org/1999/xlink" xml:space="preserve" style="fill-rule:evenodd;clip-rule:evenodd;stroke-linejoin:round;stroke-miterlimit:1.41421;"><g><circle cx="129.928" cy="129.928" r="129.928" style="fill:#fff;fill-opacity:0.5;"/><g><path d="M90.988,188.589l0,12.486c0,4.068 -3.303,7.371 -7.371,7.371c-4.068,0 -7.371,-3.303 -7.371,-7.371l0,-156.107c0,-4.068 3.303,-7.37 7.371,-7.37c4.068,0 7.371,3.302 7.371,7.37l0,70.247c10.374,-12.149 25.801,-19.857 43.013,-19.857c31.208,0 56.544,25.336 56.544,56.544c0,31.207 -25.336,56.544 -56.544,56.544c-17.212,0 -32.639,-7.708 -43.013,-19.857Zm43.013,-79.095c23.406,0 42.408,19.002 42.408,42.408c0,23.405 -19.002,42.408 -42.408,42.408c-23.405,0 -42.408,-19.003 -42.408,-42.408c0,-23.406 19.003,-42.408 42.408,-42.408Z" style="fill:#13416d;"/><path d="M202.81,180.536c-8.109,19.443 -24.223,34.725 -44.214,41.722l-24.595,-70.356l68.809,28.634Z" style="fill:#6fa6d9;"/></g></g></svg>