<?xml version="1.0" encoding="UTF-8" standalone="no"?><!DOCTYPE svg PUBLIC "-//W3C//DTD SVG 1.1//EN" "http://www.w3.org/Graphics/SVG/1.1/DTD/svg11.dtd"><svg width="100%" height="100%" viewBox="0 0 410 252" version="1.1" xmlns="http://www.w3.org/2000/svg" xmlns:xlink="http://www.w3.org/1999/xlink" xml:space="preserve" style="fill-rule:evenodd;clip-rule:evenodd;stroke-linejoin:round;stroke-miterlimit:1.41421;"><g><path d="M189.649,124.807l40.495,-49.388c3.065,-3.738 8.589,-4.285 12.328,-1.219c3.739,3.065 4.285,8.589 1.22,12.328l-42.715,52.095l42.715,52.094c3.065,3.739 2.519,9.263 -1.22,12.328c-3.739,3.066 -9.263,2.519 -12.328,-1.219l-40.495,-49.388l-40.496,49.388c-3.065,3.738 -8.589,4.285 -12.328,1.219c-3.739,-3.065 -4.285,-8.589 -1.22,-12.328l42.715,-52.094l-42.715,-52.095c-3.065,-3.739 -2.519,-9.263 1.22,-12.328c3.739,-3.066 9.263,-2.519 12.328,1.219l40.496,49.388Zm-172.129,54.639l0,14.839c0,4.835 -3.925,8.76 -8.76,8.76c-4.835,0 -8.76,-3.925 -8.76,-8.76l0,-185.525c0,-4.835 3.925,-8.76 8.76,-8.76c4.835,0 8.76,3.925 8.76,8.76l0,83.485c12.33,-14.439 30.663,-23.6 51.12,-23.6c37.089,0 67.2,30.112 67.2,67.2c0,37.089 -30.111,67.2 -67.2,67.2c-20.457,0 -38.79,-9.16 -51.12,-23.599Zm259.2,0l0,14.839c0,4.835 -3.925,8.76 -8.76,8.76c-4.835,0 -8.76,-3.925 -8.76,-8.76l0,-185.525c0,-4.835 3.925,-8.76 8.76,-8.76c4.835,0 8.76,3.925 8.76,8.76l0,83.485c12.33,-14.439 30.663,-23.6 51.12,-23.6c37.089,0 67.2,30.112 67.2,67.2c0,37.089 -30.111,67.2 -67.2,67.2c-20.457,0 -38.79,-9.16 -51.12,-23.599Zm-208.08,-94.001c27.817,0 50.4,22.584 50.4,50.4c0,27.817 -22.583,50.4 -50.4,50.4c-27.817,0 -50.4,-22.583 -50.4,-50.4c0,-27.816 22.583,-50.4 50.4,-50.4Zm259.2,0c27.817,0 50.4,22.584 50.4,50.4c0,27.817 -22.583,50.4 -50.4,50.4c-27.817,0 -50.4,-22.583 -50.4,-50.4c0,-27.816 22.583,-50.4 50.4,-50.4Z" style="fill:#fff;"/><path d="M409.615,169.876c-9.637,23.106 -28.787,41.269 -52.545,49.584l-29.23,-83.615l81.775,34.031Z" style="fill:#d3d2d2;"/><path d="M100.699,251.141c4.551,0 7.649,-3.61 7.649,-7.734l0,-0.042c0,-4.124 -3.055,-7.692 -7.606,-7.692c-4.551,0 -7.648,3.611 -7.648,7.734l0,0.043c0,4.123 3.055,7.691 7.605,7.691Zm130.11,0c4.55,0 7.648,-3.61 7.648,-7.734l0,-0.042c0,-4.124 -3.055,-7.692 -7.605,-7.692c-4.551,0 -7.649,3.611 -7.649,7.734l0,0.043c0,4.123 3.055,7.691 7.606,7.691Zm108.254,0c4.55,0 7.648,-3.61 7.648,-7.734l0,-0.042c0,-4.124 -3.055,-7.692 -7.606,-7.692c-4.55,0 -7.648,3.611 -7.648,7.734l0,0.043c0,4.123 3.055,7.691 7.606,7.691Zm-66.38,-15.211l0,8.588c0,3.226 1.709,5.042 4.572,5.042c2.756,0 4.508,-1.666 4.508,-4.935l0,-8.695l1.688,0l0,8.567c0,4.358 -2.5,6.623 -6.239,6.623c-3.696,0 -6.217,-2.265 -6.217,-6.495l0,-8.695l1.688,0Zm116.009,15.168c2.97,0 5.106,-1.666 5.106,-4.23l0,-0.042c0,-2.286 -1.538,-3.504 -4.871,-4.231c-3.29,-0.705 -4.059,-1.495 -4.059,-2.905l0,-0.043c0,-1.346 1.239,-2.414 3.183,-2.414c1.539,0 2.927,0.491 4.316,1.624l0.983,-1.304c-1.517,-1.217 -3.077,-1.837 -5.256,-1.837c-2.841,0 -4.914,1.731 -4.914,4.081l0,0.042c0,2.457 1.581,3.568 5.021,4.316c3.14,0.662 3.888,1.453 3.888,2.841l0,0.043c0,1.474 -1.324,2.543 -3.333,2.543c-2.072,0 -3.568,-0.705 -5.127,-2.116l-1.047,1.24c1.795,1.602 3.739,2.392 6.11,2.392Zm-181.576,0c2.969,0 5.106,-1.666 5.106,-4.23l0,-0.042c0,-2.286 -1.538,-3.504 -4.871,-4.231c-3.29,-0.705 -4.06,-1.495 -4.06,-2.905l0,-0.043c0,-1.346 1.24,-2.414 3.184,-2.414c1.538,0 2.927,0.491 4.315,1.624l0.983,-1.304c-1.517,-1.217 -3.076,-1.837 -5.256,-1.837c-2.841,0 -4.913,1.731 -4.913,4.081l0,0.042c0,2.457 1.581,3.568 5.02,4.316c3.141,0.662 3.889,1.453 3.889,2.841l0,0.043c0,1.474 -1.325,2.543 -3.333,2.543c-2.073,0 -3.568,-0.705 -5.128,-2.116l-1.047,1.24c1.795,1.602 3.739,2.392 6.111,2.392Zm-82.724,-7.691l5.085,-7.477l1.966,0l-6.217,9.015l0,5.94l-1.709,0l0,-5.918l-6.218,-9.037l2.051,0l5.042,7.477Zm-122.952,-7.477l10.81,0l0,1.538l-9.122,0l0,5.106l8.161,0l0,1.538l-8.161,0l0,5.235l9.229,0l0,1.538l-10.917,0l0,-14.955Zm29.675,8.161l5.448,-8.161l1.709,0l0,14.955l-1.687,0l0,-12.114l-5.448,8.012l-0.086,0l-5.448,-7.99l0,12.092l-1.645,0l0,-14.955l1.709,0l5.448,8.161Zm25.189,-8.161c3.376,0 5.597,1.794 5.597,4.743l0,0.042c0,3.226 -2.691,4.893 -5.875,4.893l-3.632,0l0,5.277l-1.688,0l0,-14.955l5.598,0Zm16.878,0l1.688,0l0,13.395l8.417,0l0,1.56l-10.105,0l0,-14.955Zm79.967,0l0,1.538l-9.123,0l0,5.106l8.162,0l0,1.538l-8.162,0l0,5.235l9.23,0l0,1.538l-10.917,0l0,-14.955l10.81,0Zm11.708,0l10.81,0l0,1.538l-9.122,0l0,5.106l8.161,0l0,1.538l-8.161,0l0,5.235l9.229,0l0,1.538l-10.917,0l0,-14.955Zm87.06,0l0,13.395l8.418,0l0,1.56l-10.106,0l0,-14.955l1.688,0Zm54.415,0l0,1.559l-5.02,0l0,13.396l-1.71,0l0,-13.396l-5.02,0l0,-1.559l11.75,0Zm11.516,0l1.687,0l0,14.955l-1.687,0l0,-14.955Zm51.638,11.985l0,-11.985l1.645,0l0,14.955l-1.346,0l-9.657,-12.263l0,12.263l-1.645,0l0,-14.955l1.581,0l9.422,11.985Zm-268.744,1.667c-3.418,0 -5.897,-2.778 -5.897,-6.175l0,-0.042c0,-3.397 2.436,-6.132 5.854,-6.132c3.419,0 5.897,2.777 5.897,6.174l0,0.043c0,3.397 -2.436,6.132 -5.854,6.132Zm130.11,0c-3.419,0 -5.897,-2.778 -5.897,-6.175l0,-0.042c0,-3.397 2.436,-6.132 5.854,-6.132c3.418,0 5.896,2.777 5.896,6.174l0,0.043c0,3.397 -2.435,6.132 -5.853,6.132Zm108.253,0c-3.418,0 -5.896,-2.778 -5.896,-6.175l0,-0.042c0,-3.397 2.435,-6.132 5.854,-6.132c3.418,0 5.896,2.777 5.896,6.174l0,0.043c0,3.397 -2.435,6.132 -5.854,6.132Zm-283.015,-5.512c2.479,0 4.102,-1.325 4.102,-3.291l0,-0.042c0,-2.137 -1.602,-3.248 -4.016,-3.248l-3.782,0l0,6.581l3.696,0Z" style="fill:#fff;"/></g></svg>